# xmcd CD database file
#
# Track frame offsets:
#	182
#	12560
#	23040
#	37135
#	50287
#	65182
#	79187
#	93055
#	105605
#	116885
#	129580
#	141950
#	152815
#	163032
#	176595
#	187237
#
# Disc length: 2648 seconds
#
# Revision: 4
# Processed by: cddbd v1.5PL3 Copyright (c) Steve Scherf et al.
# Submitted via: CDex 1.40Beta8
#
DISCID=e30a5610
DTITLE=Elmore James - Blues Masters: The Very Best Of Elmore James
DYEAR=2000
DGENRE=Blues
TTITLE0=Dust My Broom
TTITLE1=Hawaiian Boogie
TTITLE2=Please Find My Baby
TTITLE3=Sho' Nuff I Do
TTITLE4=Wild About You Baby
TTITLE5=The 12 Year Old Boy
TTITLE6=It Hurts Me Too
TTITLE7=Cry For Me Baby
TTITLE8=Coming Home
TTITLE9=The Sky Is Crying
TTITLE10=The Sun Is Shining
TTITLE11=Madison Blues
TTITLE12=I Can't Hold Out
TTITLE13=Standing At The Crossroads
TTITLE14=Done Somebody Wrong
TTITLE15=Shake Your Moneymaker
EXTD=YEAR: 2000 ID3G: 0
EXTT0=
EXTT1=
EXTT2=
EXTT3=
EXTT4=
EXTT5=
EXTT6=
EXTT7=
EXTT8=
EXTT9=
EXTT10=
EXTT11=
EXTT12=
EXTT13=
EXTT14=
EXTT15=
PLAYORDER=
